<svg xmlns="http://www.w3.org/2000/svg" xmlns:xlink="http://www.w3.org/1999/xlink" version="1.1" id="Laag_1" x="0px" y="0px" viewBox="0 0 1920 900" style="enable-background:new 0 0 1920 900;" xml:space="preserve">
<style type="text/css">
	.st0{fill:none;}
	.st1{fill:#ddd1b6;}
	.st2{opacity:0.2;fill:#FFFFFF;enable-background:new    ;}
</style>
<path class="st0" d="M1920,0v12.9c-68.1,158-163.3,301.5-279.7,424.8c-157.5,166.9-353.8,296.6-574.6,374.8  C913.2,866.6,749,896,578,896c-205.3,0-400.7-42.4-578-118.9V0H1920z"/>
<g id="Circles">
	<g id="Group_3">
		<path class="st1" d="M1920,0v12.9c-68.1,158-163.3,301.5-279.7,424.8c-157.5,166.9-353.8,296.6-574.6,374.8    C913.2,866.6,749,896,578,896c-205.3,0-400.7-42.4-578-118.9V0H1920z"/>
		<path class="st2" d="M1920,0v12.9c-68.1,158-163.3,301.5-279.7,424.8c-95.2-49.5-160.3-149-160.3-263.7c0-65,20.9-125.1,56.3-174    H1920z"/>
		<path class="st2" d="M1065.7,812.5C913.2,866.6,749,896,578,896c-205.3,0-400.7-42.4-578-118.9V0h571.4    C817.5,204.6,995.4,488.5,1065.7,812.5z"/>
	</g>
</g>
</svg>