<svg id="Calque_1" data-name="Calque 1" xmlns="http://www.w3.org/2000/svg" viewBox="0 0 570 570"><defs><style>.cls-1{fill:#f1f1f1;}.cls-2{fill:silver;}.cls-3{fill:#c1c1c1;}.cls-4{fill:#ededed;}.cls-5{fill:#efefef;}.cls-6{fill:#eee;}</style></defs><path class="cls-1" d="M285,569.91q-140.74,0-281.51.09C.64,570,0,569.16,0,565.41Q.14,285,0,4.59C0,.84.64,0,3.49,0q281.51.15,563,0c2.84,0,3.49.84,3.49,4.59q-.12,280.41,0,560.82c0,3.74-.64,4.59-3.49,4.59Q425.77,569.84,285,569.91Z"/><path class="cls-2" d="M254.16,312.89c-3.52,2-7.2.92-10.69,1.07s-7,0-10.49-.08c-.83,0-1.8-.28-1.67-1.34a1.92,1.92,0,0,1,1.33-1.22c4.31-.69,4.42-3.81,4.38-7.15,0-5.5-.06-11,0-16.49,0-3.81-.44-7.27-3.92-9.7-2.3-1.6-1.07-2.76.84-3.43,3.14-1.12,6.32-2.12,9.48-3.17,2.35-.78,4.31-.89,4.65,2.39s2.12,1.78,3.49.93a27.59,27.59,0,0,1,10.61-4.19c4.51-.64,8.84.12,12,3.4,2.72,2.79,4.68,2.47,7.65.4a20.07,20.07,0,0,1,15.63-3.65c6.72,1.31,10.29,5.54,10.45,12.61.15,6.83.07,13.66.05,20.49,0,3.12.17,6,3.75,7.36,1.63.61,2.17,1.71.07,2.63s-17.66,0-20.94-1.61c7.5-1.8,6-7.33,6.09-12.19.06-5.49.13-11-.07-16.48-.22-6.06-2.82-9.15-7.13-9-6.06.19-11.63,4.82-11.71,9.93-.11,6.49,0,13-.05,19.48,0,3.16.33,6,3.88,7.31A2,2,0,0,1,283,312.6a1.79,1.79,0,0,1-1.32,1.15,178,178,0,0,1-20-.64c6.61-2.81,5.31-8.2,5.34-13,0-5.67.14-11.33-.05-17-.25-7.44-4.56-10.06-11.39-7.39-5.24,2-8.2,5.16-7.55,11.26.46,4.28.09,8.65.09,13C248.09,308.15,248.09,308.15,254.16,312.89Z"/><path class="cls-3" d="M225.09,312.4c-1.59.87-2.13,1.42-2.67,1.43-6.32.08-12.64.1-19,.1-1,0-2.19-.06-2.45-1.25-.2-1,.72-1.41,1.54-1.6,3.17-.76,3.48-3.16,3.47-5.81v-25c0-3-.52-5.32-4.17-5.46a2,2,0,0,1-2.2-1.64,1.7,1.7,0,0,1,1.48-1.91,1.37,1.37,0,0,1,.35,0c4.65-.16,4.46-3.37,4.58-6.69.42-12.16,6-19.08,16.57-21a13.47,13.47,0,0,1,10,2c2.56,1.67,3.87,4.21,2.68,7.33-.91,2.36-2.73,3.93-5.36,3.71-3.21-.28-4.29-2.78-4.83-5.54-.41-2.07-.18-4.86-3.32-4.54-2.77.29-3.66,2.69-3.74,5.17-.13,4.66,0,9.32-.15,14-.1,3.37.94,5.46,4.75,5.38,1.41,0,3.45-.2,3.56,1.8s-1.94,2-3.34,2c-4.1-.16-5.06,2.09-5,5.66.12,6.32,0,12.65,0,19C218,304.8,216.26,310.88,225.09,312.4Z"/><path class="cls-2" d="M345,313.27c-9.4,1.21-17.59.84-25.77.37-.22-2.37,1.23-2.35,2.25-2.59,2.59-.62,3.43-2.39,3.43-4.8V284.78c0-3.2-1.59-5.31-4.23-6.83s-1.91-2.72.49-3.53c2.84-.95,5.75-1.72,8.57-2.71,3.21-1.12,6.15-2.39,6.53,3,.15,2.16,1.81,1.26,2.91.34a38.8,38.8,0,0,1,4.58-3.82c2.76-1.63,5.53-1.27,7.6,1.31s1.92,5.26.16,7.88-4.24,2.85-7,1.73c-6.41-2.55-8.33-1.3-8.45,5.59-.1,5,0,10,0,15-.08,4.6.71,8.4,6.45,8.66C343,311.42,343.49,312.1,345,313.27Z"/><path class="cls-4" d="M296.47,274.63c6.79,3,8.33,31.12,1.59,36.76C298.68,298.84,300.7,286.59,296.47,274.63Z"/><path class="cls-5" d="M269,310.11c-.87-12,1.94-23.91-2.75-35.77,3.64.92,5.35,3.38,5.45,6.33.29,8.47.19,16.95.09,25.43C271.75,307.65,271.41,309.44,269,310.11Z"/><path class="cls-5" d="M236.18,277.32c3.77,0,5.36,2.33,5.45,4.94.31,8.29.19,16.59.11,24.88a2.83,2.83,0,0,1-2.62,3C237.76,299.29,241.4,288.08,236.18,277.32Z"/><path class="cls-1" d="M214,249.45c-4.29,9.34-2.83,19.23-3,28.93-.13,9,0,17.94-.05,26.92,0,2.51,0,5-3.44,6.05,1-16.86.07-33.51.56-50.14A15.8,15.8,0,0,1,214,249.45Z"/><path class="cls-6" d="M227.29,247.58c2,2.45,3,4.84,5.7,5.86C228.09,255.7,227,254.52,227.29,247.58Z"/><path class="cls-1" d="M327.31,310.09c-1.72-10.89,2.27-22-3.11-32.75,3.63-.12,5.16,2.14,5.4,4.75a179.81,179.81,0,0,1,.12,25.32A2.8,2.8,0,0,1,327.31,310.09Z"/><path class="cls-4" d="M350,278.74c-.54,2.08-1.74,2.18-2.87,2.09-2.37-.18-4.54-1-5.67-3.23-.45-.87.74-1.52,1.5-1.3C345.4,277,347.74,277.93,350,278.74Z"/></svg>